<svg xmlns="http://www.w3.org/2000/svg" viewBox="0 0 168 168" fill="white" width="30" height="30">
  <path d="M84,0C37.67,0,0,37.67,0,84s37.67,84,84,84s84-37.67,84-84S130.33,0,84,0z M122.9,121.6c-1.7,2.8-5.3,3.7-8.1,2 
  c-22.1-13.5-50-16.6-82.7-9.2c-3.2,0.7-6.4-1.3-7.1-4.6c-0.7-3.2,1.3-6.4,4.6-7.1c36.7-8.2,69.2-4.6,94.3,10.8 
  C123.6,115,124.6,118.8,122.9,121.6z M132.5,99.3c-2.1,3.3-6.5,4.4-9.8,2.3c-25.3-15.5-63.8-20-93.6-11.1
  c-3.7,1.1-7.6-1-8.7-4.7 c-1.1-3.7,1-7.6,4.7-8.7c34.8-10.1,78.2-5.1,108.9,12.6C133.4,91.4,134.6,96,132.5,99.3z 
  M134.6,76c-30-17.7-79.4-19.3-107.8-10.7 c-4.3,1.3-8.9-1.1-10.2-5.4c-1.3-4.3,1.1-8.9,5.4-10.2
  c32.8-10.1,88.6-8.2,123.3,12.1c3.8,2.3,5.1,7.2,2.8,11 C145.7,76.6,140.1,79.2,134.6,76z"/>
</svg>
